<svg xmlns="http://www.w3.org/2000/svg" xmlns:xlink="http://www.w3.org/1999/xlink" viewBox="0,0,256,256" width="64px" height="64px" fill-rule="nonzero"><defs><radialGradient cx="32" cy="33.5" r="31.259" gradientUnits="userSpaceOnUse" id="color-1"><stop offset="0" stop-color="#9ceeff"></stop><stop offset="0.642" stop-color="#c5f5ff"></stop><stop offset="1" stop-color="#dcf9ff"></stop></radialGradient><linearGradient x1="32" y1="67.873" x2="32" y2="-5.552" gradientUnits="userSpaceOnUse" id="color-2"><stop offset="0" stop-color="#005ce2"></stop><stop offset="0.278" stop-color="#0080e8"></stop><stop offset="0.569" stop-color="#009ced"></stop><stop offset="0.82" stop-color="#00b0f1"></stop><stop offset="1" stop-color="#00b5f2"></stop></linearGradient><linearGradient x1="46.998" y1="60.89" x2="46.998" y2="2.086" gradientUnits="userSpaceOnUse" id="color-3"><stop offset="0" stop-color="#005ce2"></stop><stop offset="0.278" stop-color="#0080e8"></stop><stop offset="0.569" stop-color="#009ced"></stop><stop offset="0.82" stop-color="#00b0f1"></stop><stop offset="1" stop-color="#00b5f2"></stop></linearGradient><linearGradient x1="15.999" y1="71.535" x2="15.999" y2="7.254" gradientUnits="userSpaceOnUse" id="color-4"><stop offset="0" stop-color="#005ce2"></stop><stop offset="0.278" stop-color="#0080e8"></stop><stop offset="0.569" stop-color="#009ced"></stop><stop offset="0.82" stop-color="#00b0f1"></stop><stop offset="1" stop-color="#00b5f2"></stop></linearGradient><linearGradient x1="40.5" y1="10.587" x2="40.5" y2="37.891" gradientUnits="userSpaceOnUse" id="color-5"><stop offset="0" stop-color="#feaa53"></stop><stop offset="0.612" stop-color="#ffcd49"></stop><stop offset="1" stop-color="#ffde44"></stop></linearGradient><linearGradient x1="30" y1="23" x2="30" y2="74.5" gradientUnits="userSpaceOnUse" id="color-6"><stop offset="0" stop-color="#ffffff"></stop><stop offset="0.088" stop-color="#f8fdff"></stop><stop offset="0.216" stop-color="#e5f7fe"></stop><stop offset="0.369" stop-color="#c5eefc"></stop><stop offset="0.541" stop-color="#98e0fa"></stop><stop offset="0.728" stop-color="#60cff7"></stop><stop offset="0.926" stop-color="#1bbbf3"></stop><stop offset="1" stop-color="#00b3f2"></stop></linearGradient></defs><g fill-opacity="0" fill="#dddddd" fill-rule="nonzero" stroke="none" stroke-width="1" stroke-linecap="butt" stroke-linejoin="miter" stroke-miterlimit="10" stroke-dasharray="" stroke-dashoffset="0" font-family="none" font-weight="none" font-size="none" text-anchor="none" style="mix-blend-mode: normal"><path d="M0,256v-256h256v256z" id="bgRectangle"></path></g><g fill="none" fill-rule="nonzero" stroke="none" stroke-width="1" stroke-linecap="butt" stroke-linejoin="miter" stroke-miterlimit="10" stroke-dasharray="" stroke-dashoffset="0" font-family="none" font-weight="none" font-size="none" text-anchor="none" style="mix-blend-mode: normal"><g transform="scale(4,4)"><path d="M59.307,42h-14.307v-8h14.302c1.895,0 3.594,-1.419 3.693,-3.312c0.106,-2.018 -1.5,-3.688 -3.495,-3.688h-14.5v-5h14.828c2.089,0 3.955,-1.527 4.153,-3.607c0.228,-2.385 -1.642,-4.393 -3.981,-4.393h-15v-4h9.302c1.895,0 3.594,-1.419 3.693,-3.312c0.106,-2.018 -1.5,-3.688 -3.495,-3.688h-44.802c-1.895,0 -3.594,1.419 -3.693,3.312c-0.106,2.018 1.5,3.688 3.495,3.688h9.5v4h-3h-7h-4.828c-2.089,0 -3.955,1.527 -4.153,3.607c-0.228,2.385 1.642,4.393 3.981,4.393h5h7h3v5h-14.302c-1.895,0 -3.594,1.419 -3.693,3.312c-0.106,2.018 1.5,3.688 3.495,3.688h14.5v6h-14.307c-2.35,0 -4.449,1.718 -4.672,4.058c-0.256,2.684 1.848,4.942 4.479,4.942h10c2.485,0 4.5,2.015 4.5,4.5v1c0,1.933 -1.567,3.5 -3.5,3.5h-3.389c-1.451,0 -2.781,0.981 -3.054,2.406c-0.368,1.917 1.092,3.594 2.943,3.594h39.889c1.451,0 2.781,-0.981 3.054,-2.406c0.368,-1.917 -1.092,-3.594 -2.943,-3.594h-3.5c-1.933,0 -3.5,-1.567 -3.5,-3.5v0c0,-1.933 1.567,-3.5 3.5,-3.5h11c2.631,0 4.735,-2.258 4.479,-4.942c-0.223,-2.34 -2.322,-4.058 -4.672,-4.058z" fill="url(#color-1)"></path><path d="M18,8h28c5.523,0 10,4.477 10,10v28c0,5.523 -4.477,10 -10,10h-28c-5.523,0 -10,-4.477 -10,-10v-28c0,-5.523 4.477,-10 10,-10z" fill="url(#color-2)"></path><path d="M56,44v2c0,5.523 -4.477,10 -10,10h-5.5c-1.466,0 -2.634,-1.254 -2.491,-2.749c0.125,-1.305 1.32,-2.251 2.631,-2.251h6.86c0.83,0 1.5,-0.67 1.5,-1.5c0,-0.83 -0.67,-1.5 -1.5,-1.5v0c-1.105,0 -2,-0.895 -2,-2v0c0,-1.105 0.895,-2 2,-2z" fill="url(#color-3)"></path><path d="M21,14h-5c-0.55,0 -1.05,0.22 -1.41,0.59c-0.37,0.36 -0.59,0.86 -0.59,1.41c0,1.1 0.9,2 2,2h1c1.21,0 2.18,1.08 1.97,2.34c-0.16,0.98 -1.08,1.66 -2.08,1.66h-8.89v-4c0,-5.52 4.48,-10 10,-10h2.89c1.45,0 2.78,0.98 3.05,2.41c0.37,1.91 -1.09,3.59 -2.94,3.59z" fill="url(#color-4)"></path><circle cx="40.5" cy="27.5" r="8.5" fill="url(#color-5)"></circle><path d="M38,29c-0.758,0 -1.488,0.112 -2.183,0.309c-0.776,-3.605 -3.979,-6.309 -7.817,-6.309c-4.418,0 -8,3.582 -8,8c0,0.027 0.004,0.052 0.004,0.079c-3.393,0.485 -6.004,3.394 -6.004,6.921c0,3.866 3.134,7 7,7h17c4.418,0 8,-3.582 8,-8c0,-4.418 -3.582,-8 -8,-8z" fill="url(#color-6)"></path></g></g></svg>